<?xml version="1.0" encoding="UTF-8"?>
<svg version="1.1" xmlns="http://www.w3.org/2000/svg" width="594" height="420">
<path d="M0 0 C1.35333435 0.02933624 1.35333435 0.02933624 2.73400879 0.05926514 C5.30849371 0.11671076 7.88274928 0.18023075 10.45703125 0.24609375 C11.20855972 0.26281631 11.9600882 0.27953888 12.73439026 0.29676819 C17.92855892 0.44077279 23.03020018 0.94610869 28.1875 1.5625 C29.77922173 1.71358569 31.37155938 1.85858406 32.96484375 1.9921875 C46.21877847 3.13372402 59.42965398 4.53452838 72.63623047 6.1328125 C75.07238124 6.42757569 77.50892872 6.71907308 79.94580078 7.0078125 C95.97878671 8.91712734 111.79374412 11.27610355 127.62109375 14.47265625 C132.01109231 15.35388444 136.37155737 16.05924293 140.8125 16.625 C146.3618618 17.34942408 151.69686974 18.61452015 157.09936523 20.03588867 C161.66587621 21.22498734 166.21975458 22.14040124 170.875 22.9375 C178.26678753 24.22226527 185.38219876 26.23912739 192.57373047 28.35742188 C199.39733098 30.36369435 206.22640627 32.0902093 213.1875 33.5625 C213.1875 34.8825 213.1875 36.2025 213.1875 37.5625 C206.3125 36.6875 206.3125 36.6875 205.1875 35.5625 C203.7925645 35.31247324 202.38747841 35.11857703 200.98046875 34.94921875 C200.08134766 34.83513672 199.18222656 34.72105469 198.25585938 34.60351562 C196.40981909 34.37698458 194.56348729 34.15280928 192.71679688 33.93164062 C186.32995802 33.11601501 180.06923772 31.95268639 173.76953125 30.64453125 C163.13389496 28.45361619 152.45155804 26.96144916 141.6875 25.5625 C138.77183726 25.17693851 135.85645719 24.78929334 132.94111633 24.40130615 C131.02201136 24.14591453 129.10281275 23.89122542 127.18351746 23.63726807 C120.57530569 22.75963617 113.98199708 21.80819882 107.3894043 20.81982422 C96.59849585 19.20464683 85.85606097 17.96532845 74.96606445 17.24511719 C69.69231038 16.8901661 64.48721147 16.36105104 59.25097656 15.63183594 C28.85480871 11.51156932 -1.35973911 11.08543898 -31.99731445 11.17138672 C-38.12231084 11.18841045 -44.24691404 11.17835654 -50.37189674 11.16106033 C-73.48640147 11.10579508 -96.52830718 11.27248593 -119.58984375 12.9609375 C-120.87733111 13.05471113 -120.87733111 13.05471113 -122.19082832 13.15037918 C-130.6568401 13.78586782 -138.98772841 14.63002979 -147.35032654 16.1378479 C-150.46902651 16.6757314 -153.56460037 16.94105933 -156.72265625 17.125 C-157.89763672 17.19976562 -159.07261719 17.27453125 -160.28320312 17.3515625 C-162.68162721 17.49241612 -165.08006477 17.63304038 -167.47851562 17.7734375 C-173.73749436 18.17214235 -179.76820368 18.81728418 -185.91967773 20.03173828 C-191.18249435 20.99733566 -196.49741049 21.5954308 -201.80618286 22.25152588 C-212.85226181 23.6195373 -223.86376035 25.11537781 -234.84765625 26.921875 C-238.32816538 27.49410411 -241.81551455 27.9752302 -245.3125 28.4375 C-252.35502592 29.41747413 -259.32551257 30.74883283 -266.3125 32.0625 C-291.09409388 36.71686812 -291.09409388 36.71686812 -298.8125 36.5625 C-298.8125 35.9025 -298.8125 35.2425 -298.8125 34.5625 C-297.50152344 34.21638672 -297.50152344 34.21638672 -296.1640625 33.86328125 C-294.31941406 33.37408203 -294.31941406 33.37408203 -292.4375 32.875 C-291.76920166 32.69783447 -291.10090332 32.52066895 -290.41235352 32.33813477 C-286.70040749 31.34910918 -282.99625363 30.33806892 -279.30078125 29.2890625 C-271.37042714 27.03932875 -263.47534389 24.9681729 -255.39453125 23.3125 C-251.22585548 22.43966931 -247.08215786 21.47959713 -242.9375 20.5 C-242.247771 20.33749756 -241.55804199 20.17499512 -240.84741211 20.00756836 C-238.12914492 19.36360454 -235.41337908 18.71990966 -232.7109375 18.01196289 C-228.96441298 17.03263758 -225.42785172 16.3255607 -221.5625 16.125 C-217.64035015 15.83026785 -214.05849621 15.19119932 -210.265625 14.16015625 C-203.82933521 12.50450148 -197.38207496 11.41279319 -190.8125 10.4375 C-189.72710937 10.26863281 -188.64171875 10.09976562 -187.5234375 9.92578125 C-181.19616794 8.96687524 -174.90197419 8.25196144 -168.51757812 7.80688477 C-165.74401531 7.55631289 -163.05108659 7.12569056 -160.3125 6.625 C-145.97485046 4.12424717 -131.33186253 3.31794635 -116.83349609 2.25976562 C-112.41340161 1.93442699 -108.01320782 1.60698965 -103.6171875 1.0390625 C-96.3269633 0.19646554 -88.95561557 0.1776753 -81.625 0 C-80.38006775 -0.03126984 -80.38006775 -0.03126984 -79.10998535 -0.06317139 C-52.73164896 -0.71381443 -26.37830178 -0.5955574 0 0 Z " fill="#F5BA07" transform="translate(336.8125,248.4375)"/>
<path d="M0 0 C12.57528531 -0.26899006 12.57528531 -0.26899006 15.6796875 2.49609375 C16.72198072 4.63667116 17.37396408 6.70327787 18 9 C18.65022827 10.67314836 19.31743671 12.33978026 20 14 C20.33128906 14.84691406 20.66257812 15.69382813 21.00390625 16.56640625 C22.17221577 19.42074676 23.52661739 22.13668174 24.93359375 24.87890625 C27.87358367 30.7265785 30.52781417 36.70379843 32.875 42.8125 C34.51323978 47.00133261 36.45824993 50.99657903 38.5 55 C46 69.71867518 46 69.71867518 46 74 C41.05 74 36.1 74 31 74 C26.125 65.25 26.125 65.25 25 63 C24.4225 63.598125 23.845 64.19625 23.25 64.8125 C16.71251633 69.2127294 9.52052985 70.55038957 1.75 69.4375 C-3.38336773 68.33797445 -7.57510139 66.8386142 -12 64 C-12.70703125 61.8671875 -12.70703125 61.8671875 -13 60 C-13.12375 61.5159375 -13.12375 61.5159375 -13.25 63.0625 C-14.66139444 71.51365451 -14.66139444 71.51365451 -18 74 C-23.02229419 74.92057236 -27.90403264 75.04436788 -33 75 C-34 72 -34 72 -32.59375 68.76953125 C-31.90420457 67.44612532 -31.20564393 66.1273927 -30.5 64.8125 C-27.59634157 59.21896897 -24.86111607 53.60426884 -22.375 47.8125 C-19.78482786 41.791981 -17.09661888 35.82777187 -14.3359375 29.8828125 C-12.0540999 24.95884716 -9.81782655 20.02484387 -7.78515625 14.9921875 C-5.60090106 9.58798165 -3.50502279 4.67336371 0 0 Z M6 17 C3.83801833 21.33768102 3.83801833 21.33768102 3 26 C4.98 26 6.96 26 9 26 C8.34 23.03 7.68 20.06 7 17 C6.67 17 6.34 17 6 17 Z M-1 34 C-1.66 35.65 -2.32 37.3 -3 39 C-2.01 38.67 -1.02 38.34 0 38 C-0.33 36.68 -0.66 35.36 -1 34 Z M13 34 C12.67 35.32 12.34 36.64 12 38 C12.99 38.33 13.98 38.66 15 39 C14.67 37.35 14.34 35.7 14 34 C13.67 34 13.34 34 13 34 Z " fill="#EEEEEC" transform="translate(324,159)"/>
<path d="M0 0 C0.02686553 1.97909398 0.04633375 3.95828971 0.0625 5.9375 C0.07410156 7.03964844 0.08570313 8.14179688 0.09765625 9.27734375 C0 12 0 12 -1 13 C-3.8116338 13.08861992 -6.59858255 13.11522355 -9.41015625 13.09765625 C-10.25219101 13.0962413 -11.09422577 13.09482635 -11.96177673 13.09336853 C-14.66205335 13.08775263 -17.36224828 13.07519748 -20.0625 13.0625 C-21.88867068 13.05748705 -23.71484266 13.05292379 -25.54101562 13.04882812 C-30.02737542 13.03777804 -34.51367384 13.02050279 -39 13 C-39 18.28 -39 23.56 -39 29 C-36.55722656 28.98839844 -34.11445313 28.97679687 -31.59765625 28.96484375 C-29.24129364 28.95705316 -26.88493244 28.95097641 -24.52856445 28.94506836 C-22.88630536 28.94002826 -21.24405077 28.93319622 -19.60180664 28.92456055 C-17.24624521 28.91248074 -14.89074291 28.90676861 -12.53515625 28.90234375 C-11.79660904 28.89718246 -11.05806183 28.89202118 -10.2971344 28.88670349 C-8.53101912 28.8865075 -6.76502854 28.93805281 -5 29 C-4 30 -4 30 -3.8671875 32.6875 C-3.86976563 33.780625 -3.87234375 34.87375 -3.875 36 C-3.87113281 37.6396875 -3.87113281 37.6396875 -3.8671875 39.3125 C-4 42 -4 42 -5 43 C-7.52094076 43.08847743 -10.01430893 43.11527301 -12.53515625 43.09765625 C-13.66503212 43.09553383 -13.66503212 43.09553383 -14.81773376 43.09336853 C-17.2326956 43.08775376 -19.64756601 43.07519883 -22.0625 43.0625 C-23.69596221 43.0574869 -25.32942586 43.05292366 -26.96289062 43.04882812 C-30.9753243 43.03862875 -34.98755936 43.01905645 -39 43 C-39 48.61 -39 54.22 -39 60 C-25.8 60 -12.6 60 1 60 C1.495 65.94 1.495 65.94 2 72 C1 73 1 73 -1.20826721 73.12025452 C-2.18311569 73.11803391 -3.15796417 73.11581329 -4.16235352 73.11352539 C-5.27888306 73.11340454 -6.3954126 73.11328369 -7.54577637 73.11315918 C-9.31942566 73.10548523 -9.31942566 73.10548523 -11.12890625 73.09765625 C-12.20910034 73.09664917 -13.28929443 73.09564209 -14.40222168 73.09460449 C-18.45565851 73.08935374 -22.50908027 73.07539263 -26.5625 73.0625 C-35.616875 73.041875 -44.67125 73.02125 -54 73 C-54 48.91 -54 24.82 -54 0 C-42.5840625 -0.2784375 -42.5840625 -0.2784375 -30.9375 -0.5625 C-27.35249634 -0.65446655 -27.35249634 -0.65446655 -23.69506836 -0.74829102 C-21.78500401 -0.79228861 -19.87492968 -0.83585568 -17.96484375 -0.87890625 C-16.98584106 -0.90561401 -16.00683838 -0.93232178 -14.99816895 -0.95983887 C-9.85982489 -1.06991367 -5.06125621 -0.91268555 0 0 Z " fill="#E7E7E7" transform="translate(165,160)"/>
<path d="M0 0 C2.72042931 2.09049383 4.13779668 3.90899931 5.5 7.0625 C4.59515208 8.21768918 3.6755794 9.36135406 2.75 10.5 C2.23953125 11.13808594 1.7290625 11.77617187 1.203125 12.43359375 C-0.77684912 14.3272846 -1.76160704 14.93357378 -4.5 15.0625 C-6.68359375 13.8828125 -6.68359375 13.8828125 -8.9375 12.1875 C-14.73897191 7.84900796 -20.44189551 7.55402592 -27.5 8.0625 C-31.23552029 8.92679586 -31.23552029 8.92679586 -34.5 10.0625 C-35.83130115 10.40385927 -37.16358148 10.74175956 -38.5 11.0625 C-38.5 11.7225 -38.5 12.3825 -38.5 13.0625 C-39.10328125 13.289375 -39.7065625 13.51625 -40.328125 13.75 C-44.64307629 16.35759647 -45.96967904 21.45953459 -47.5 26.0625 C-49.01374779 33.31727644 -46.82943155 39.04526361 -43.328125 45.41796875 C-39.54422823 50.89168267 -34.95360677 52.89006637 -28.625 54.4375 C-22.33573619 55.46788943 -15.90716015 55.66727343 -10.5 52.0625 C-9.99156938 49.74496412 -9.99156938 49.74496412 -9.98828125 47.0546875 C-9.95283203 46.06855469 -9.91738281 45.08242187 -9.88085938 44.06640625 C-9.85830078 43.03386719 -9.83574219 42.00132812 -9.8125 40.9375 C-9.77833984 39.89722656 -9.74417969 38.85695312 -9.70898438 37.78515625 C-9.62633831 35.21132166 -9.56149784 32.63692671 -9.5 30.0625 C-4.88 30.0625 -0.26 30.0625 4.5 30.0625 C4.5 40.2925 4.5 50.5225 4.5 61.0625 C-10.53654959 68.58077479 -22.92749112 72.71854486 -39.25 67.375 C-48.62875468 63.60193777 -56.35116255 57.05222708 -60.56640625 47.6953125 C-64.45101651 36.54817001 -64.74816416 24.18616955 -59.7890625 13.3046875 C-54.93406496 4.8599342 -47.46986832 -2.04940685 -38.0625 -4.8125 C-25.32851308 -7.52391927 -10.96425818 -7.71993223 0 0 Z " fill="#EBEBEB" transform="translate(96.5,164.9375)"/>
<path d="M0 0 C1.73828125 1.53515625 1.73828125 1.53515625 2.23828125 3.78515625 C1.53765808 7.63858371 -0.18269587 10.22171354 -2.26171875 13.53515625 C-3.40640625 13.13296875 -3.40640625 13.13296875 -4.57421875 12.72265625 C-18.46749896 8.07563913 -18.46749896 8.07563913 -32.5234375 10.625 C-34.991361 11.91719365 -36.15790669 12.95959477 -37.26171875 15.53515625 C-37.03597984 18.72750897 -37.03597984 18.72750897 -36.26171875 21.53515625 C-35.29234375 21.80328125 -34.32296875 22.07140625 -33.32421875 22.34765625 C-30.5863468 23.12756798 -27.89206204 23.98732793 -25.19921875 24.91015625 C-20.0310114 26.67143862 -14.770268 28.06620978 -9.49609375 29.47265625 C-6.37393635 30.4982925 -3.92320384 31.61408431 -1.26171875 33.53515625 C-1.26171875 34.19515625 -1.26171875 34.85515625 -1.26171875 35.53515625 C-0.27171875 35.86515625 0.71828125 36.19515625 1.73828125 36.53515625 C5.13689338 42.32538432 5.57650246 47.91511375 4.73828125 54.53515625 C3.18909869 59.98495917 0.41752934 63.50836094 -4.359375 66.5078125 C-15.37618249 72.45734098 -27.23861876 72.43303163 -39.26171875 69.53515625 C-42.40018318 68.42635744 -45.31638586 67.07879457 -48.26171875 65.53515625 C-49.43734375 64.95765625 -50.61296875 64.38015625 -51.82421875 63.78515625 C-52.62859375 63.37265625 -53.43296875 62.96015625 -54.26171875 62.53515625 C-52.95110284 58.30085869 -51.31815616 54.46108221 -49.26171875 50.53515625 C-48.27171875 50.53515625 -47.28171875 50.53515625 -46.26171875 50.53515625 C-46.26171875 51.19515625 -46.26171875 51.85515625 -46.26171875 52.53515625 C-44.32711886 53.01032113 -42.39239594 53.48499108 -40.45703125 53.95703125 C-38.26171875 54.53515625 -38.26171875 54.53515625 -35.07421875 55.66015625 C-28.2523287 57.22583593 -21.12185091 57.69859984 -14.57421875 55.03515625 C-13.81109375 54.54015625 -13.04796875 54.04515625 -12.26171875 53.53515625 C-11.60171875 53.53515625 -10.94171875 53.53515625 -10.26171875 53.53515625 C-9.96294278 48.18006782 -9.96294278 48.18006782 -12.26171875 43.53515625 C-13.9197824 43.16137312 -15.58970809 42.84055636 -17.26171875 42.53515625 C-20.2331329 41.79111327 -23.18396543 40.97470889 -26.13671875 40.16015625 C-26.91402344 39.95132813 -27.69132812 39.7425 -28.4921875 39.52734375 C-35.12315506 37.69964849 -41.56593979 35.50494158 -47.26171875 31.53515625 C-47.26171875 30.87515625 -47.26171875 30.21515625 -47.26171875 29.53515625 C-47.92171875 29.53515625 -48.58171875 29.53515625 -49.26171875 29.53515625 C-52.91379011 22.53535281 -53.43565295 16.30410289 -51.07421875 8.72265625 C-47.55291303 2.53001515 -42.86692885 -1.02820205 -36.26171875 -3.46484375 C-25.19287709 -5.86151602 -9.82990842 -6.366521 0 0 Z " fill="#E9E9E9" transform="translate(227.26171875,163.46484375)"/>
<path d="M0 0 C1.57394531 -0.05607422 1.57394531 -0.05607422 3.1796875 -0.11328125 C6.8575104 0.41839341 7.85564664 1.42832183 10.125 4.3125 C11.46875 6.4609375 11.46875 6.4609375 12.625 8.6875 C14.07585333 11.40673738 15.53525071 13.92787606 17.25 16.5 C22.125 23.8125 22.125 23.8125 22.125 27.3125 C22.785 27.3125 23.445 27.3125 24.125 27.3125 C25.5856285 29.95988916 26.125 31.20698334 26.125 34.3125 C29.04053356 31.71191605 30.85822804 28.70267373 32.875 25.375 C33.22280518 24.80450928 33.57061035 24.23401855 33.92895508 23.64624023 C36.28827415 19.7586954 38.55681239 15.82368728 40.8125 11.875 C41.91664627 10.02082119 43.02081038 8.166653 44.125 6.3125 C44.48464844 5.61382812 44.84429688 4.91515625 45.21484375 4.1953125 C46.25 2.5 46.25 2.5 49.125 0.3125 C53.54735569 0.13430984 57.76270326 0.60993391 62.125 1.3125 C61.45011148 5.41295902 59.32334237 8.72383171 57.25 12.25 C56.89808594 12.85779297 56.54617188 13.46558594 56.18359375 14.09179688 C53.35344058 18.96828756 50.51534514 23.79646268 47.3125 28.4375 C43.88325579 33.53409604 40.98722315 38.8823958 38.125 44.3125 C37.465 44.3125 36.805 44.3125 36.125 44.3125 C35.795 54.2125 35.465 64.1125 35.125 74.3125 C29.52634627 75.71216343 24.72448725 75.52268078 19.125 74.3125 C19.12612793 73.58248779 19.12725586 72.85247559 19.12841797 72.1003418 C19.11617285 68.73266791 19.05833769 65.36717868 19 62 C19.00257813 60.85208984 19.00515625 59.70417969 19.0078125 58.52148438 C18.77291586 48.15667011 15.28069064 41.44263686 9.125 33.3125 C8.32843167 31.95224711 7.5581553 30.57631503 6.8125 29.1875 C3.22961551 22.63501755 -0.60793615 16.25454746 -4.6875 10 C-6.4998874 7.13619555 -7.55301617 4.74699421 -7.875 1.3125 C-5.18932703 -0.03033649 -2.99753147 0.06962481 0 0 Z " fill="#FABE04" transform="translate(499.875,158.6875)"/>
<path d="M0 0 C20.46 0 40.92 0 62 0 C62 4.29 62 8.58 62 13 C54.41 13 46.82 13 39 13 C39 32.8 39 52.6 39 73 C34.05 73.33 29.1 73.66 24 74 C22.9388209 70.81646269 22.91307754 68.67458372 22.97827148 65.33520508 C22.99836777 64.17422806 23.01846405 63.01325104 23.03916931 61.8170929 C23.06620438 60.56389755 23.09323944 59.31070221 23.12109375 58.01953125 C23.14470474 56.73640549 23.16831573 55.45327972 23.19264221 54.13127136 C23.25541367 50.72321537 23.32449978 47.31531552 23.39489746 43.90740967 C23.4656437 40.4285797 23.53042299 36.9496392 23.59570312 33.47070312 C23.72462594 26.64701529 23.86021951 19.82347382 24 13 C23.30849854 13.00523682 22.61699707 13.01047363 21.90454102 13.01586914 C18.79053648 13.036575 15.67654639 13.04963963 12.5625 13.0625 C11.47388672 13.07087891 10.38527344 13.07925781 9.26367188 13.08789062 C8.22919922 13.09111328 7.19472656 13.09433594 6.12890625 13.09765625 C4.69140015 13.10551147 4.69140015 13.10551147 3.22485352 13.11352539 C1 13 1 13 0 12 C0 8.04 0 4.08 0 0 Z " fill="#E9E9E9" transform="translate(234,160)"/>
<path d="M0 0 C-0.03355819 4.03816945 -0.57222301 7.97889632 -1 12 C-8.92 12 -16.84 12 -25 12 C-24.96447021 13.78204834 -24.92894043 15.56409668 -24.89233398 17.40014648 C-24.77638255 23.27539571 -24.66510046 29.15072329 -24.5570364 35.02612209 C-24.49131828 38.58982026 -24.42370145 42.15346168 -24.35180664 45.71704102 C-24.26931434 49.80996634 -24.19497044 53.90300379 -24.12109375 57.99609375 C-24.09405869 59.28148544 -24.06702362 60.56687714 -24.03916931 61.89122009 C-24.01907303 63.07236893 -23.99897675 64.25351776 -23.97827148 65.47045898 C-23.95828598 66.51636703 -23.93830048 67.56227509 -23.91770935 68.63987732 C-24 71 -24 71 -25 72 C-27.52596259 72.23653523 -30.03107207 72.42173692 -32.5625 72.5625 C-33.62887695 72.62727539 -33.62887695 72.62727539 -34.71679688 72.69335938 C-36.47761912 72.79971777 -38.2387832 72.90038846 -40 73 C-40.33 72.01 -40.66 71.02 -41 70 C-40.34 70 -39.68 70 -39 70 C-39 50.86 -39 31.72 -39 12 C-46.92 12 -54.84 12 -63 12 C-63.77501098 6.57492316 -64.09771031 4.00068031 -63 -1 C-55.08134039 -1.17686123 -47.16256023 -1.34282321 -39.24338722 -1.49477577 C-35.5664166 -1.56567392 -31.88960348 -1.64036071 -28.21289062 -1.72363281 C-24.6663486 -1.80381853 -21.1197369 -1.87414775 -17.5728569 -1.93757248 C-16.21796817 -1.96354715 -14.86314337 -1.99310612 -13.50841141 -2.02626419 C-11.61469834 -2.07200894 -9.72066725 -2.10396646 -7.82666016 -2.13525391 C-6.20783432 -2.16856308 -6.20783432 -2.16856308 -4.55630493 -2.20254517 C-2 -2 -2 -2 0 0 Z " fill="#F1F1F1" transform="translate(486,161)"/>
<path d="M0 0 C4.95 0 9.9 0 15 0 C15 19.8 15 39.6 15 60 C27.13173597 59.96039717 27.13173597 59.96039717 39.26342773 59.90991211 C40.77848236 59.90699293 42.29353777 59.90444438 43.80859375 59.90234375 C44.60237427 59.89722778 45.39615479 59.89211182 46.21398926 59.88684082 C48.14302829 59.88653044 50.07196912 59.93764107 52 60 C53 61 53 61 53.1328125 63.46875 C53.13023437 64.4690625 53.12765625 65.469375 53.125 66.5 C53.12886719 68.00046875 53.12886719 68.00046875 53.1328125 69.53125 C53 72 53 72 52 73 C50.34261557 73.09346915 48.68125356 73.11744977 47.02124023 73.11352539 C45.94531616 73.11340454 44.86939209 73.11328369 43.76086426 73.11315918 C42.62161499 73.10804321 41.48236572 73.10292725 40.30859375 73.09765625 C38.74727722 73.09614563 38.74727722 73.09614563 37.15441895 73.09460449 C33.24876816 73.08935401 29.34313303 73.07539289 25.4375 73.0625 C16.713125 73.041875 7.98875 73.02125 -1 73 C-0.67 48.91 -0.34 24.82 0 0 Z " fill="#E9E9E9" transform="translate(378,160)"/>
<path d="M0 0 C0.33 0.66 0.66 1.32 1 2 C0.22285645 2.11069824 -0.55428711 2.22139648 -1.35498047 2.33544922 C-4.86295294 2.84003858 -8.36893205 3.35735018 -11.875 3.875 C-13.09832031 4.04902344 -14.32164062 4.22304687 -15.58203125 4.40234375 C-17.33193359 4.66337891 -17.33193359 4.66337891 -19.1171875 4.9296875 C-20.19597168 5.08679199 -21.27475586 5.24389648 -22.38623047 5.40576172 C-25.14377823 5.78861038 -25.14377823 5.78861038 -27 8 C-28.64991582 8.70710678 -30.31562256 9.37943989 -32 10 C-28.91641696 10.05484634 -25.83384542 10.09407318 -22.75 10.125 C-21.46996094 10.15013672 -21.46996094 10.15013672 -20.1640625 10.17578125 C-15.42391085 10.21115552 -11.00716057 9.89211518 -6.34661865 9.00198364 C-0.47838214 7.99167848 5.14918444 7.72786894 11.09277344 7.77294922 C12.12840424 7.77265717 13.16403503 7.77236511 14.23104858 7.77206421 C17.60724679 7.77344221 20.98321601 7.78893047 24.359375 7.8046875 C26.71876912 7.80842308 29.0781648 7.81126747 31.43756104 7.81326294 C37.61226777 7.82085648 43.78687867 7.84046777 49.96154785 7.8626709 C56.27643539 7.88322201 62.59133858 7.89228438 68.90625 7.90234375 C81.27087517 7.92371806 93.63542958 7.95780173 106 8 C106 8.33 106 8.66 106 9 C104.46740036 9.00879936 104.46740036 9.00879936 102.90383911 9.01777649 C93.05697023 9.07613791 83.21029877 9.14942977 73.36363411 9.23571491 C68.30689334 9.27959042 63.25021819 9.31900099 58.19335938 9.34643555 C36.6860482 9.46661099 15.26253549 9.87167575 -6.1953125 11.41796875 C-7.06890285 11.47999292 -7.94249321 11.5420171 -8.842556 11.60592079 C-17.49545517 12.23361033 -26.01313892 13.02359588 -34.55828857 14.57466125 C-37.66982117 15.11668082 -40.75855139 15.37893507 -43.91015625 15.5625 C-45.08513672 15.63726562 -46.26011719 15.71203125 -47.47070312 15.7890625 C-49.86912721 15.92991612 -52.26756477 16.07054038 -54.66601562 16.2109375 C-60.92499436 16.60964235 -66.95570368 17.25478418 -73.10717773 18.46923828 C-78.36999435 19.43483566 -83.68491049 20.0329308 -88.99368286 20.68902588 C-100.03976181 22.0570373 -111.05126035 23.55287781 -122.03515625 25.359375 C-125.51566538 25.93160411 -129.00301455 26.4127302 -132.5 26.875 C-139.54252592 27.85497413 -146.51301257 29.18633283 -153.5 30.5 C-178.28159388 35.15436812 -178.28159388 35.15436812 -186 35 C-186 34.34 -186 33.68 -186 33 C-184.68902344 32.65388672 -184.68902344 32.65388672 -183.3515625 32.30078125 C-181.50691406 31.81158203 -181.50691406 31.81158203 -179.625 31.3125 C-178.62255249 31.04675171 -178.62255249 31.04675171 -177.59985352 30.77563477 C-173.88790749 29.78660918 -170.18375363 28.77556892 -166.48828125 27.7265625 C-158.55792714 25.47682875 -150.66284389 23.4056729 -142.58203125 21.75 C-138.41335548 20.87716931 -134.26965786 19.91709713 -130.125 18.9375 C-129.435271 18.77499756 -128.74554199 18.61249512 -128.03491211 18.44506836 C-125.31664492 17.80110454 -122.60087908 17.15740966 -119.8984375 16.44946289 C-116.15191298 15.47013758 -112.61535172 14.7630607 -108.75 14.5625 C-104.82785015 14.26776785 -101.24599621 13.62869932 -97.453125 12.59765625 C-91.01683521 10.94200148 -84.56957496 9.85029319 -78 8.875 C-76.91460937 8.70613281 -75.82921875 8.53726562 -74.7109375 8.36328125 C-68.38366794 7.40437524 -62.08947419 6.68946144 -55.70507812 6.24438477 C-52.93150966 5.99381238 -50.23855242 5.56342011 -47.5 5.0625 C-39.63645684 3.68203404 -31.70796682 3.00201808 -23.76416016 2.25878906 C-20.85668724 1.98658262 -17.949797 1.70869005 -15.04296875 1.4296875 C-10.02902764 0.94903008 -5.01464364 0.47326958 0 0 Z " fill="#BF941A" transform="translate(224,250)"/>
<path d="M0 0 C5.2729362 1.08575903 10.55723944 1.93914573 15.8828125 2.71875 C22.34729523 3.67986176 28.60754531 5.00689962 34.92358398 6.68041992 C39.40664971 7.85858635 43.87781569 8.74851365 48.4453125 9.53125 C55.83708579 10.81613367 62.95249612 12.83287293 70.14404297 14.95117188 C76.96764348 16.95744435 83.79671877 18.6839593 90.7578125 20.15625 C90.7578125 21.47625 90.7578125 22.79625 90.7578125 24.15625 C83.8828125 23.28125 83.8828125 23.28125 82.7578125 22.15625 C81.362877 21.90622324 79.95779091 21.71232703 78.55078125 21.54296875 C77.65166016 21.42888672 76.75253906 21.31480469 75.82617188 21.19726562 C73.98013159 20.97073458 72.13379979 20.74655928 70.28710938 20.52539062 C63.90027052 19.70976501 57.63955022 18.54643639 51.33984375 17.23828125 C40.70416373 15.04735718 30.02184171 13.55565168 19.2578125 12.15625 C16.35372866 11.77175847 13.44993807 11.38510631 10.5461731 10.99821472 C8.63210587 10.74326381 6.71794264 10.48903254 4.80368042 10.23554993 C-0.74576373 9.49865832 -6.28945827 8.73187854 -11.828125 7.91796875 C-13.08044922 7.73427734 -14.33277344 7.55058594 -15.62304688 7.36132812 C-17.84630058 7.03200323 -20.0690251 6.69907068 -22.29101562 6.36132812 C-28.90121545 5.38633439 -35.4626893 4.8162786 -42.13598633 4.4621582 C-46.24233304 4.0577526 -51.20105503 3.19738247 -54.2421875 0.15625 C-56.45052188 0.13552836 -58.65940285 0.16529837 -60.8671875 0.21875 C-66.1723509 0.26188141 -70.29286373 -0.01465209 -75.2421875 -1.84375 C-76.57348865 -2.18510927 -77.90576898 -2.52300956 -79.2421875 -2.84375 C-79.2421875 -4.16375 -79.2421875 -5.48375 -79.2421875 -6.84375 C-52.50016382 -9.36381624 -26.16912127 -5.40014282 0 0 Z " fill="#E3AA0E" transform="translate(459.2421875,261.84375)"/>
<path d="M0 0 C0.33 0.99 0.66 1.98 1 3 C0.67 3.66 0.34 4.32 0 5 C1.98 5 3.96 5 6 5 C6.33 4.01 6.66 3.02 7 2 C9.70612233 4.70612233 9 6.28208882 9 10 C9.99 11.485 9.99 11.485 11 13 C11 14.32 11 15.64 11 17 C11.66 16.34 12.32 15.68 13 15 C13.79953138 18.28696233 14.09658936 19.71023192 13 23 C14.32 23 15.64 23 17 23 C17 23.99 17 24.98 17 26 C17.99 26 18.98 26 20 26 C20.84790327 29.73628921 21.22131132 33.29507543 21.3125 37.125 C21.36857422 38.67574219 21.36857422 38.67574219 21.42578125 40.2578125 C21 43 21 43 19.32421875 44.75390625 C10.74930144 49.35121486 2.21714094 49.64458052 -7 47 C-10.11458185 45.927687 -12.20290401 44.84713886 -15 43 C-16.80838987 39.06409264 -15.73663324 35.17425505 -15 31 C-14.34 31 -13.68 31 -13 31 C-13 29.35 -13 27.7 -13 26 C-12.34 26 -11.68 26 -11 26 C-11 25.01 -11 24.02 -11 23 C-9.68 23 -8.36 23 -7 23 C-7.33 21.68 -7.66 20.36 -8 19 C-6.35 18.34 -4.7 17.68 -3 17 C-3.66 16.34 -4.32 15.68 -5 15 C-4.57384946 11.16464517 -3.21547496 7.64642488 -2 4 C-2 3.34 -2 2.68 -2 2 C-1.34 2 -0.68 2 0 2 C0 1.34 0 0.68 0 0 Z " fill="#F8E285" transform="translate(327,180)"/>
<path d="M0 0 C1.57394531 -0.05607422 1.57394531 -0.05607422 3.1796875 -0.11328125 C6.8575104 0.41839341 7.85564664 1.42832183 10.125 4.3125 C11.46875 6.4609375 11.46875 6.4609375 12.625 8.6875 C14.07585333 11.40673738 15.53525071 13.92787606 17.25 16.5 C22.125 23.8125 22.125 23.8125 22.125 27.3125 C22.785 27.3125 23.445 27.3125 24.125 27.3125 C25.5856285 29.95988916 26.125 31.20698334 26.125 34.3125 C29.39786682 31.5305632 31.08927697 28.03295933 33.125 24.3125 C34.28680951 27.79792854 34.0022131 28.28480669 32.4375 31.4375 C32.10363281 32.14132813 31.76976562 32.84515625 31.42578125 33.5703125 C30.125 35.3125 30.125 35.3125 28.12109375 36.11328125 C25.5720411 36.36768768 24.28117277 35.62160489 22.125 34.3125 C21.795 36.2925 21.465 38.2725 21.125 40.3125 C19.64 39.8175 19.64 39.8175 18.125 39.3125 C18.455 41.9525 18.785 44.5925 19.125 47.3125 C19.785 47.3125 20.445 47.3125 21.125 47.3125 C21.125 55.8925 21.125 64.4725 21.125 73.3125 C25.085 73.3125 29.045 73.3125 33.125 73.3125 C33.455 64.7325 33.785 56.1525 34.125 47.3125 C34.455 47.3125 34.785 47.3125 35.125 47.3125 C35.125 56.2225 35.125 65.1325 35.125 74.3125 C29.52634627 75.71216343 24.72448725 75.52268078 19.125 74.3125 C19.12612793 73.58248779 19.12725586 72.85247559 19.12841797 72.1003418 C19.11617285 68.73266791 19.05833769 65.36717868 19 62 C19.00257813 60.85208984 19.00515625 59.70417969 19.0078125 58.52148438 C18.77291586 48.15667011 15.28069064 41.44263686 9.125 33.3125 C8.32843167 31.95224711 7.5581553 30.57631503 6.8125 29.1875 C3.22961551 22.63501755 -0.60793615 16.25454746 -4.6875 10 C-6.4998874 7.13619555 -7.55301617 4.74699421 -7.875 1.3125 C-5.18932703 -0.03033649 -2.99753147 0.06962481 0 0 Z " fill="#E7B00A" transform="translate(499.875,158.6875)"/>
<path d="M0 0 C0.92469086 -0.00335861 1.84938171 -0.00671722 2.80209351 -0.01017761 C5.82779314 -0.01960029 8.85343705 -0.02162548 11.87915039 -0.02270508 C13.9914197 -0.02592075 16.10368879 -0.02928505 18.21595764 -0.03279114 C22.62623614 -0.03875846 27.0364951 -0.04063321 31.44677734 -0.04003906 C37.10855859 -0.03993689 42.77021597 -0.05365588 48.43196774 -0.07081127 C52.78555382 -0.08189753 57.13910945 -0.08395941 61.49270821 -0.08342934 C63.5815836 -0.08461198 65.67045972 -0.0890496 67.75932121 -0.0967617 C70.66776311 -0.10650518 73.57592913 -0.10370742 76.484375 -0.09765625 C77.78486031 -0.10608551 77.78486031 -0.10608551 79.11161804 -0.11468506 C85.06098246 -0.0830605 85.06098246 -0.0830605 87.28930664 2.14526367 C86.95930664 3.79526367 86.62930664 5.44526367 86.28930664 7.14526367 C50.97930664 7.14526367 15.66930664 7.14526367 -20.71069336 7.14526367 C-20.05069336 5.16526367 -19.39069336 3.18526367 -18.71069336 1.14526367 C-12.43412212 0.35378252 -6.32232531 -0.00335966 0 0 Z " fill="#FCC003" transform="translate(263.710693359375,249.854736328125)"/>
<path d="M0 0 C0.495 0.99 0.495 0.99 1 2 C0.22285645 2.11069824 -0.55428711 2.22139648 -1.35498047 2.33544922 C-4.86295294 2.84003858 -8.36893205 3.35735018 -11.875 3.875 C-13.09832031 4.04902344 -14.32164062 4.22304687 -15.58203125 4.40234375 C-16.74863281 4.57636719 -17.91523438 4.75039062 -19.1171875 4.9296875 C-20.73536377 5.16534424 -20.73536377 5.16534424 -22.38623047 5.40576172 C-25.14377823 5.78861038 -25.14377823 5.78861038 -27 8 C-28.64991582 8.70710678 -30.31562256 9.37943989 -32 10 C-28.91641696 10.05484634 -25.83384542 10.09407318 -22.75 10.125 C-21.46996094 10.15013672 -21.46996094 10.15013672 -20.1640625 10.17578125 C-15.42391085 10.21115552 -11.00716057 9.89211518 -6.34661865 9.00198364 C-0.47838214 7.99167848 5.14918444 7.72786894 11.09277344 7.77294922 C12.12840424 7.77265717 13.16403503 7.77236511 14.23104858 7.77206421 C17.60724679 7.77344221 20.98321601 7.78893047 24.359375 7.8046875 C26.71876912 7.80842308 29.0781648 7.81126747 31.43756104 7.81326294 C37.61226777 7.82085648 43.78687867 7.84046777 49.96154785 7.8626709 C56.27643539 7.88322201 62.59133858 7.89228438 68.90625 7.90234375 C81.27087517 7.92371806 93.63542958 7.95780173 106 8 C106 8.33 106 8.66 106 9 C104.46740036 9.00879936 104.46740036 9.00879936 102.90383911 9.01777649 C93.05697023 9.07613791 83.21029877 9.14942977 73.36363411 9.23571491 C68.30689334 9.27959042 63.25021819 9.31900099 58.19335938 9.34643555 C36.6860482 9.46661099 15.26253549 9.87167575 -6.1953125 11.41796875 C-7.06890285 11.47999292 -7.94249321 11.5420171 -8.842556 11.60592079 C-17.49545517 12.23361033 -26.01313892 13.02359588 -34.55828857 14.57466125 C-37.66982117 15.11668082 -40.75855139 15.37893507 -43.91015625 15.5625 C-45.08513672 15.63726562 -46.26011719 15.71203125 -47.47070312 15.7890625 C-49.86912721 15.92991612 -52.26756477 16.07054038 -54.66601562 16.2109375 C-61.10637791 16.62119671 -67.3290033 17.29288678 -73.66186523 18.54101562 C-76.43179346 19.08476263 -79.19192051 19.4658491 -82 19.75 C-83.3303125 19.89695312 -83.3303125 19.89695312 -84.6875 20.046875 C-87 20 -87 20 -90 18 C-86.99686252 16.49843126 -84.20932478 16.90718796 -80.875 16.9375 C-79.59367188 16.94652344 -78.31234375 16.95554687 -76.9921875 16.96484375 C-76.00476563 16.97644531 -75.01734375 16.98804688 -74 17 C-74 16.34 -74 15.68 -74 15 C-67.73 14.67 -61.46 14.34 -55 14 C-54.34 12.35 -53.68 10.7 -53 9 C-56.18798491 9.28650869 -59.37533312 9.57953358 -62.5625 9.875 C-63.51165283 9.96233398 -64.46080566 10.04966797 -65.4387207 10.13964844 C-72.4248598 10.80135067 -79.33538785 11.70780044 -86.26171875 12.828125 C-87.61716797 12.91320312 -87.61716797 12.91320312 -89 13 C-89.66 12.34 -90.32 11.68 -91 11 C-86.91777895 10.34700799 -82.83404741 9.70396179 -78.75 9.0625 C-77.61046875 8.88009766 -76.4709375 8.69769531 -75.296875 8.50976562 C-68.76241279 7.4887559 -62.27803117 6.68915615 -55.67871094 6.23779297 C-52.91327465 5.99230127 -50.23009268 5.56207948 -47.5 5.0625 C-39.63645684 3.68203404 -31.70796682 3.00201808 -23.76416016 2.25878906 C-20.85668724 1.98658262 -17.949797 1.70869005 -15.04296875 1.4296875 C-10.02902764 0.94903008 -5.01464364 0.47326958 0 0 Z " fill="#B88D0F" transform="translate(224,250)"/>
<path d="M0 0 C7.05235684 0.93957732 13.74495837 2.10436154 20.515625 4.29296875 C23.11735109 5.03339709 25.63445894 5.43802816 28.3125 5.8125 C35.11546791 6.84964498 41.59285248 8.80770723 48.18164062 10.74389648 C55.0745969 12.76306417 61.97034449 14.5132083 69 16 C69 17.32 69 18.64 69 20 C62.125 19.125 62.125 19.125 61 18 C59.6050645 17.74997324 58.19997841 17.55607703 56.79296875 17.38671875 C55.89384766 17.27263672 54.99472656 17.15855469 54.06835938 17.04101562 C52.22231909 16.81448458 50.37598729 16.59030928 48.52929688 16.36914062 C42.17829483 15.55809152 35.95490491 14.40169031 29.69140625 13.09765625 C18.44670691 10.77642755 7.1299859 9.23812295 -4.25 7.75 C-6.27872537 7.47976313 -8.30737174 7.20893241 -10.3359375 6.9375 C-15.22307963 6.28485497 -20.11120268 5.64012329 -25 5 C-25 4.67 -25 4.34 -25 4 C-18.30280413 2.68447938 -12.64176715 3.43898378 -6.03857422 4.80737305 C-1.04312794 5.8379269 3.86394155 6.46568813 8.9609375 6.7890625 C11 7 11 7 13 8 C15.0374763 8.22858114 17.08040303 8.41024278 19.125 8.5625 C20.76855469 8.68818359 20.76855469 8.68818359 22.4453125 8.81640625 C23.28835938 8.87699219 24.13140625 8.93757813 25 9 C25 8.34 25 7.68 25 7 C24.11699219 6.90203125 23.23398437 6.8040625 22.32421875 6.703125 C14.39567527 5.71525062 7.36800784 4.09757064 0 1 C0 0.67 0 0.34 0 0 Z " fill="#D9A816" transform="translate(481,266)"/>
<path d="M0 0 C0 0.66 0 1.32 0 2 C1.16917969 2.06058594 2.33835937 2.12117188 3.54296875 2.18359375 C5.09115614 2.26804034 6.63933268 2.35268625 8.1875 2.4375 C9.34088867 2.49647461 9.34088867 2.49647461 10.51757812 2.55664062 C14.43251075 2.77507034 18.17120688 3.08692108 22 4 C21.07561164 6.3109709 20.42410347 7.71660376 18.328125 9.1171875 C15.29526479 10.26723181 12.73801407 10.26485328 9.5 10.25 C8.3759375 10.25515625 7.251875 10.2603125 6.09375 10.265625 C2.77718069 9.98086905 0.3871811 9.3871811 -2 7 C-4.20833438 6.97927836 -6.41721535 7.00904837 -8.625 7.0625 C-13.9301634 7.10563141 -18.05067623 6.82909791 -23 5 C-24.33130115 4.65864073 -25.66358148 4.32074044 -27 4 C-27 2.68 -27 1.36 -27 0 C-23.06290089 -0.19665429 -19.12531328 -0.38075477 -15.1875 -0.5625 C-14.06794922 -0.61857422 -12.94839844 -0.67464844 -11.79492188 -0.73242188 C-10.72177734 -0.78076172 -9.64863281 -0.82910156 -8.54296875 -0.87890625 C-7.0583313 -0.94960327 -7.0583313 -0.94960327 -5.54370117 -1.02172852 C-3 -1 -3 -1 0 0 Z " fill="#FABE07" transform="translate(407,255)"/>
<path d="M0 0 C0.33 0.99 0.66 1.98 1 3 C0.67 3.66 0.34 4.32 0 5 C1.98 5 3.96 5 6 5 C6.33 4.01 6.66 3.02 7 2 C9.70612233 4.70612233 9 6.28208882 9 10 C9.99 11.485 9.99 11.485 11 13 C10.125 15.6875 10.125 15.6875 9 18 C8.01 17.67 7.02 17.34 6 17 C3.3430809 17.87914688 3.3430809 17.87914688 1 19 C3.97851562 18.90234375 3.97851562 18.90234375 6.95703125 18.8046875 C9 19 9 19 12 21 C12 21.66 12 22.32 12 23 C10.865625 23.268125 9.73125 23.53625 8.5625 23.8125 C7.386875 24.204375 6.21125 24.59625 5 25 C4.67 25.99 4.34 26.98 4 28 C0.66666667 26.33333333 -2.66666667 24.66666667 -6 23 C-6 22.01 -6 21.02 -6 20 C-6.66 19.67 -7.32 19.34 -8 19 C-6.35 18.34 -4.7 17.68 -3 17 C-3.66 16.34 -4.32 15.68 -5 15 C-4.57384946 11.16464517 -3.21547496 7.64642488 -2 4 C-2 3.34 -2 2.68 -2 2 C-1.34 2 -0.68 2 0 2 C0 1.34 0 0.68 0 0 Z " fill="#DCD3A6" transform="translate(327,180)"/>
<path d="M0 0 C-0.66 1.65 -1.32 3.3 -2 5 C-8.37358711 5.96205088 -14.55929529 6.10655578 -21 6 C-21 6.66 -21 7.32 -21 8 C-25.62 8.33 -30.24 8.66 -35 9 C-34.67 9.66 -34.34 10.32 -34 11 C-38.62 11 -43.24 11 -48 11 C-47.67 10.01 -47.34 9.02 -47 8 C-46.34 8 -45.68 8 -45 8 C-45 7.34 -45 6.68 -45 6 C-41.535 5.505 -41.535 5.505 -38 5 C-38 4.34 -38 3.68 -38 3 C-12.23623663 -0.58165209 -12.23623663 -0.58165209 0 0 Z " fill="#FBBE04" transform="translate(171,259)"/>
<path d="M0 0 C5.07210297 -0.24741966 7.78374381 0.50964109 13 2 C13 7.28 13 12.56 13 18 C10.03 18.33 7.06 18.66 4 19 C4.66 18.34 5.32 17.68 6 17 C5.195625 16.71125 4.39125 16.4225 3.5625 16.125 C1 15 1 15 0 13 C-0.07092842 10.7927077 -0.08415025 8.58332548 -0.0625 6.375 C-0.05347656 5.18648437 -0.04445313 3.99796875 -0.03515625 2.7734375 C-0.02355469 1.85820312 -0.01195312 0.94296875 0 0 Z " fill="#FBC107" transform="translate(316,208)"/>
<path d="M0 0 C-0.33 4.95 -0.66 9.9 -1 15 C-6 17 -6 17 -13 17 C-13 12.05 -13 7.1 -13 2 C-6 0 -6 0 0 0 Z " fill="#FAC00D" transform="translate(345,208)"/>
<path d="M0 0 C0 0.33 0 0.66 0 1 C-11.60879601 2.20390485 -23.17530927 2.12852221 -34.83203125 2.09765625 C-36.92095404 2.09578753 -39.00987727 2.09436578 -41.09880066 2.09336853 C-46.55503584 2.08957905 -52.01124374 2.07977988 -57.46746826 2.06866455 C-63.05187613 2.05837306 -68.63628847 2.05385444 -74.22070312 2.04882812 C-85.1471473 2.03815387 -96.07357137 2.02112114 -107 2 C-106.67 1.34 -106.34 0.68 -106 0 C-70.63213871 -1.28934612 -35.36786129 -1.28934612 0 0 Z " fill="#A8841C" transform="translate(348,249)"/>
<path d="M0 0 C8.07767083 -0.42451993 14.62473415 -0.2352574 22.11328125 2.91015625 C27.55302214 4.96386086 33.30364882 5.90230897 39 7 C39 7.66 39 8.32 39 9 C37.04174127 9.02694851 35.08337774 9.04637218 33.125 9.0625 C31.48917969 9.07990234 31.48917969 9.07990234 29.8203125 9.09765625 C27 9 27 9 25 8 C23.39972037 7.81636135 21.79415243 7.67776496 20.1875 7.5625 C3.3125 6.15625 3.3125 6.15625 -1 4 C-0.67 2.68 -0.34 1.36 0 0 Z " fill="#FBBF05" transform="translate(467,266)"/>
<path d="M0 0 C37.62 0 75.24 0 114 0 C114 0.66 114 1.32 114 2 C109.06063952 3.05373879 104.45609021 2.93614021 99.45776367 2.58227539 C88.86277066 1.93171486 78.28811355 1.77904509 67.67578125 1.68359375 C65.70753111 1.66295056 63.73928467 1.64195262 61.77104187 1.62062073 C56.66017706 1.5661585 51.54927749 1.516424 46.43835449 1.46777344 C41.1952007 1.41699427 35.95209565 1.3616067 30.70898438 1.30664062 C20.47269815 1.19999098 10.2363691 1.0983504 0 1 C0 0.67 0 0.34 0 0 Z " fill="#EDBD29" transform="translate(241,257)"/>
<path d="M0 0 C1.50433594 0.01353516 1.50433594 0.01353516 3.0390625 0.02734375 C3.80992188 0.03894531 4.58078125 0.05054688 5.375 0.0625 C5.87 2.0425 5.87 2.0425 6.375 4.0625 C5.21484375 4.18367188 4.0546875 4.30484375 2.859375 4.4296875 C-7.72944285 5.55553669 -7.72944285 5.55553669 -18.25 7.1875 C-22.79928339 7.99851431 -27.01028157 8.23998917 -31.625 8.0625 C-31.625 7.4025 -31.625 6.7425 -31.625 6.0625 C-27.17 5.5675 -27.17 5.5675 -22.625 5.0625 C-22.625 4.4025 -22.625 3.7425 -22.625 3.0625 C-18.56638383 1.70962794 -14.59179819 1.63236751 -10.33984375 1.34375 C-6.62702549 0.95911271 -3.88541249 -0.04517921 0 0 Z " fill="#FBBF08" transform="translate(115.625,266.9375)"/>
<path d="M0 0 C0.99 0.33 1.98 0.66 3 1 C3.33 2.98 3.66 4.96 4 7 C4.66 7 5.32 7 6 7 C6 15.58 6 24.16 6 33 C9.96 33 13.92 33 18 33 C18.33 24.42 18.66 15.84 19 7 C19.33 7 19.66 7 20 7 C20 15.91 20 24.82 20 34 C14.40134627 35.39966343 9.59948725 35.21018078 4 34 C3.98541748 33.24380371 3.97083496 32.48760742 3.95581055 31.70849609 C3.88108 28.26349723 3.78450072 24.81944079 3.6875 21.375 C3.66494141 20.18519531 3.64238281 18.99539062 3.61914062 17.76953125 C3.43295533 11.71004622 3.28244862 7.15687639 0 2 C0 1.34 0 0.68 0 0 Z " fill="#A58317" transform="translate(515,199)"/>
<path d="M0 0 C4.00460609 0.62588202 7.90675994 1.41729955 11.8359375 2.41015625 C12.89941406 2.67763672 13.96289062 2.94511719 15.05859375 3.22070312 C16.70021484 3.63739258 16.70021484 3.63739258 18.375 4.0625 C20.05142578 4.48499023 20.05142578 4.48499023 21.76171875 4.91601562 C24.50835869 5.6085445 27.25442307 6.3032709 30 7 C30 8.32 30 9.64 30 11 C23.125 10.125 23.125 10.125 22 9 C20.41730756 8.72685159 18.8249486 8.50917409 17.23046875 8.31640625 C16.25916016 8.19330078 15.28785156 8.07019531 14.28710938 7.94335938 C12.23271898 7.69092955 10.17803205 7.44090061 8.12304688 7.19335938 C7.14787109 7.06896484 6.17269531 6.94457031 5.16796875 6.81640625 C4.27360107 6.70756104 3.3792334 6.59871582 2.45776367 6.48657227 C-0.00153003 5.9996971 -1.82774069 5.2292287 -4 4 C-1.36 4 1.28 4 4 4 C2.68 2.68 1.36 1.36 0 0 Z " fill="#BD941E" transform="translate(520,275)"/>
<path d="M0 0 C4.7517398 0.43197635 6.92000054 1.32769295 10 5 C6.04369799 6.36948916 4.66750453 5.77791742 0 5 C0.33 9.95 0.66 14.9 1 20 C3.31 20.66 5.62 21.32 8 22 C8 22.33 8 22.66 8 23 C3.08121703 23.28934017 -0.15800309 23.27699736 -4 20 C-5.57971475 15.93787636 -4.74300102 12.21033914 -4 8 C-3.34 8 -2.68 8 -2 8 C-2 6.35 -2 4.7 -2 3 C-1.34 3 -0.68 3 0 3 C0 2.01 0 1.02 0 0 Z " fill="#F5C93D" transform="translate(316,203)"/>
<path d="M0 0 C-0.33 0.99 -0.66 1.98 -1 3 C-2.0725 3.144375 -3.145 3.28875 -4.25 3.4375 C-6.91662949 3.83749442 -9.41399729 4.27591924 -12 5 C-9.525 5.495 -9.525 5.495 -7 6 C-9.94915586 7.64298613 -12.47206953 8.38675688 -15.80859375 8.8515625 C-17.17661133 9.04492188 -17.17661133 9.04492188 -18.57226562 9.2421875 C-19.51779297 9.36851562 -20.46332031 9.49484375 -21.4375 9.625 C-22.37916016 9.7590625 -23.32082031 9.893125 -24.29101562 10.03125 C-28.57124177 10.62329257 -32.67187819 11.0723363 -37 11 C-37 10.34 -37 9.68 -37 9 C-36.12601563 8.76925781 -35.25203125 8.53851563 -34.3515625 8.30078125 C-33.12179688 7.97464844 -31.89203125 7.64851563 -30.625 7.3125 C-29.96395264 7.13750977 -29.30290527 6.96251953 -28.62182617 6.78222656 C-24.78385951 5.76067046 -20.95613752 4.71007328 -17.13671875 3.62109375 C-15.93184814 3.27921021 -15.93184814 3.27921021 -14.70263672 2.93041992 C-13.13140098 2.48312329 -11.5613656 2.03158447 -9.99267578 1.57543945 C-6.49475315 0.58232241 -3.66591809 0 0 0 Z " fill="#B38D1D" transform="translate(75,274)"/>
<path d="M0 0 C2.8712936 0.25568326 5.70565708 0.56806088 8.5625 0.9375 C9.36880859 1.03740234 10.17511719 1.13730469 11.00585938 1.24023438 C13.00452132 1.48858882 15.00234487 1.7436731 17 2 C17 2.33 17 2.66 17 3 C15.37585622 3.19477739 13.75063577 3.38059458 12.125 3.5625 C11.22007812 3.66691406 10.31515625 3.77132813 9.3828125 3.87890625 C7 4 7 4 5 3 C4.34 4.32 3.68 5.64 3 7 C-6.63225483 7.26349633 -15.5005349 6.61693023 -25 5 C-25 4.67 -25 4.34 -25 4 C-24.37432129 4.00523682 -23.74864258 4.01047363 -23.10400391 4.01586914 C-20.27767943 4.03661618 -17.45137095 4.04965286 -14.625 4.0625 C-13.64015625 4.07087891 -12.6553125 4.07925781 -11.640625 4.08789062 C-10.69960938 4.09111328 -9.75859375 4.09433594 -8.7890625 4.09765625 C-7.91975098 4.10289307 -7.05043945 4.10812988 -6.15478516 4.11352539 C-3.94950006 4.14122351 -3.94950006 4.14122351 -2 3 C-1.34 3.33 -0.68 3.66 0 4 C-0.33 3.01 -0.66 2.02 -1 1 C-0.67 0.67 -0.34 0.34 0 0 Z " fill="#DAAA12" transform="translate(462,263)"/>
<path d="M0 0 C1.21236328 0.01353516 1.21236328 0.01353516 2.44921875 0.02734375 C3.37154297 0.04474609 3.37154297 0.04474609 4.3125 0.0625 C3.6525 0.3925 2.9925 0.7225 2.3125 1.0625 C2.3125 1.7225 2.3125 2.3825 2.3125 3.0625 C-0.69781744 3.99673645 -1.55400268 4.10699911 -4.6875 3.0625 C-5.0175 3.3925 -5.3475 3.7225 -5.6875 4.0625 C-7.21558942 4.26660828 -8.75186803 4.41008064 -10.2890625 4.52734375 C-11.2478833 4.60436523 -12.2067041 4.68138672 -13.19458008 4.76074219 C-14.22349365 4.83969727 -15.25240723 4.91865234 -16.3125 5 C-24.61503635 5.6620904 -32.80136674 6.54069343 -41.01953125 7.890625 C-41.89996094 7.94734375 -42.78039062 8.0040625 -43.6875 8.0625 C-44.3475 7.4025 -45.0075 6.7425 -45.6875 6.0625 C-41.60527895 5.40950799 -37.52154741 4.76646179 -33.4375 4.125 C-32.29796875 3.94259766 -31.1584375 3.76019531 -29.984375 3.57226562 C-23.36718624 2.53832988 -16.80639855 1.74461139 -10.12207031 1.30639648 C-6.57001955 0.95055024 -3.63322994 -0.05265551 0 0 Z " fill="#C4981F" transform="translate(178.6875,254.9375)"/>
<path d="M0 0 C0.99 0 1.98 0 3 0 C3 1.65 3 3.3 3 5 C3.66 5 4.32 5 5 5 C5.10815225 6.76949095 5.18566083 8.54087487 5.25 10.3125 C5.29640625 11.29863281 5.3428125 12.28476563 5.390625 13.30078125 C5 16 5 16 3.3359375 17.7734375 C0.66587618 19.17544294 -1.65689294 19.7884811 -4.625 20.3125 C-5.58664062 20.49425781 -6.54828125 20.67601562 -7.5390625 20.86328125 C-8.35117187 20.90839844 -9.16328125 20.95351562 -10 21 C-12 19 -12 19 -12.1953125 15.3046875 C-12.182009 13.82799892 -12.15814835 12.35137642 -12.125 10.875 C-12.11146484 9.74384766 -12.11146484 9.74384766 -12.09765625 8.58984375 C-12.0740687 6.72642746 -12.03819719 4.86317407 -12 3 C-11.67 3 -11.34 3 -11 3 C-11 7.95 -11 12.9 -11 18 C-5.555 17.01 -5.555 17.01 0 16 C0.66 11.05 1.32 6.1 2 1 C1.34 0.67 0.68 0.34 0 0 Z " fill="#DDBD51" transform="translate(343,207)"/>
<path d="M0 0 C0.33 0.66 0.66 1.32 1 2 C1.8971875 2.2165625 1.8971875 2.2165625 2.8125 2.4375 C5 3 5 3 6.8125 4.5 C9.76917479 6.52743414 12.47928577 6.66146979 16 7 C15.67 7.66 15.34 8.32 15 9 C13.68 9 12.36 9 11 9 C11 14.28 11 19.56 11 25 C12.32 25.33 13.64 25.66 15 26 C11.1496895 28.56687367 9.41430237 27.83288724 5 27 C5 26.34 5 25.68 5 25 C6.32 25 7.64 25 9 25 C9 19.72 9 14.44 9 9 C7.35 9 5.7 9 4 9 C4 7.68 4 6.36 4 5 C1.525 4.01 1.525 4.01 -1 3 C-0.67 2.01 -0.34 1.02 0 0 Z " fill="#FEF7AB" transform="translate(320,201)"/>
<path d="M0 0 C0.89203125 0.10183594 1.7840625 0.20367187 2.703125 0.30859375 C3.37859375 0.39238281 4.0540625 0.47617187 4.75 0.5625 C4.75 0.8925 4.75 1.2225 4.75 1.5625 C3.95940186 1.6126123 3.16880371 1.66272461 2.35424805 1.71435547 C-1.28512665 1.94881084 -4.92378049 2.19309478 -8.5625 2.4375 C-10.42745117 2.55544922 -10.42745117 2.55544922 -12.33007812 2.67578125 C-18.96767062 3.12874032 -25.41011933 3.81976011 -31.93823242 5.10791016 C-34.69914855 5.65082132 -37.45091212 6.02925896 -40.25 6.3125 C-41.136875 6.41046875 -42.02375 6.5084375 -42.9375 6.609375 C-45.25 6.5625 -45.25 6.5625 -48.25 4.5625 C-45.24686252 3.06093126 -42.45932478 3.46968796 -39.125 3.5 C-37.84367188 3.50902344 -36.56234375 3.51804687 -35.2421875 3.52734375 C-34.25476563 3.53894531 -33.26734375 3.55054688 -32.25 3.5625 C-32.25 2.9025 -32.25 2.2425 -32.25 1.5625 C-25.27212702 0.95002212 -18.37835215 0.43593401 -11.37109375 0.625 C-9.254993 0.64494918 -9.254993 0.64494918 -7.30078125 0.03515625 C-4.72801982 -0.557804 -2.61525317 -0.30970103 0 0 Z " fill="#B28818" transform="translate(182.25,263.4375)"/>
<path d="M0 0 C1.59134766 -0.02126953 1.59134766 -0.02126953 3.21484375 -0.04296875 C6.0625 0.1875 6.0625 0.1875 9.0625 2.1875 C9.0625 2.8475 9.0625 3.5075 9.0625 4.1875 C7.928125 4.455625 6.79375 4.72375 5.625 5 C3.8615625 5.5878125 3.8615625 5.5878125 2.0625 6.1875 C1.7325 7.1775 1.4025 8.1675 1.0625 9.1875 C-2.27083333 7.52083333 -5.60416667 5.85416667 -8.9375 4.1875 C-8.6075 3.1975 -8.2775 2.2075 -7.9375 1.1875 C-5.2264923 -0.16800385 -3.02410831 0.01832793 0 0 Z " fill="#F8C420" transform="translate(329.9375,198.8125)"/>
<path d="M0 0 C1.57394531 -0.05607422 1.57394531 -0.05607422 3.1796875 -0.11328125 C6.80183833 0.41034533 7.89845935 1.47444466 10.125 4.3125 C10.875 6.5625 10.875 6.5625 11.125 8.3125 C7.25 6.5625 7.25 6.5625 6.125 4.3125 C4.84625 4.333125 3.5675 4.35375 2.25 4.375 C-1.625 4.4375 -1.625 4.4375 -3.875 3.3125 C-3.215 6.2825 -2.555 9.2525 -1.875 12.3125 C-5.2316285 10.07474766 -5.45496014 9.37929952 -6.5625 5.6875 C-6.81386719 4.87023437 -7.06523437 4.05296875 -7.32421875 3.2109375 C-7.50597656 2.58445313 -7.68773437 1.95796875 -7.875 1.3125 C-5.18932703 -0.03033649 -2.99753147 0.06962481 0 0 Z M3.125 7.3125 C4.115 7.3125 5.105 7.3125 6.125 7.3125 C5.795 8.6325 5.465 9.9525 5.125 11.3125 C4.135 10.3225 3.145 9.3325 2.125 8.3125 C2.455 7.9825 2.785 7.6525 3.125 7.3125 Z " fill="#CC9F1C" transform="translate(499.875,158.6875)"/>
<path d="M0 0 C5.65640657 -0.20201452 11.02596113 0.21516363 16.625 1 C24.46134986 2.08589419 32.09435955 2.20445622 40 2 C40 2.66 40 3.32 40 4 C42.97 4 45.94 4 49 4 C49 4.33 49 4.66 49 5 C42.05646447 6.08860515 35.73467735 5.89853499 28.78515625 4.90722656 C22.37399847 4.00208656 15.95122746 3.4175663 9.5 2.875 C8.46584961 2.78758545 7.43169922 2.7001709 6.36621094 2.61010742 C3.91100197 2.40426542 1.45562875 2.2007625 -1 2 C-0.67 1.34 -0.34 0.68 0 0 Z " fill="#B28E20" transform="translate(366,259)"/>
<path d="M0 0 C0 0.66 0 1.32 0 2 C-3.21451269 3.60725635 -6.43612536 3.05748185 -10 3 C-10.33 3.99 -10.66 4.98 -11 6 C-12.26457031 5.98259766 -12.26457031 5.98259766 -13.5546875 5.96484375 C-14.65039062 5.95582031 -15.74609375 5.94679688 -16.875 5.9375 C-17.96554688 5.92589844 -19.05609375 5.91429687 -20.1796875 5.90234375 C-22.95177546 5.80255697 -22.95177546 5.80255697 -25 7 C-27.04055005 7.07065617 -29.08334257 7.08421976 -31.125 7.0625 C-32.22070312 7.05347656 -33.31640625 7.04445313 -34.4453125 7.03515625 C-35.70988281 7.01775391 -35.70988281 7.01775391 -37 7 C-37 6.67 -37 6.34 -37 6 C-29.43648957 4.24438225 -22.08064168 2.79455827 -14.33203125 2.25 C-9.22646747 1.70266988 -5.28902029 -0.25185811 0 0 Z " fill="#CB9B1A" transform="translate(133,262)"/>
<path d="M0 0 C3.3 0 6.6 0 10 0 C10 1.32 10 2.64 10 4 C9.01 4.66 8.02 5.32 7 6 C7.33 7.65 7.66 9.3 8 11 C6.68 11.33 5.36 11.66 4 12 C4 11.34 4 10.68 4 10 C3.34 10 2.68 10 2 10 C0.68373308 6.38026598 0 3.90432869 0 0 Z " fill="#FBC005" transform="translate(496,162)"/>
<path d="M0 0 C4.29 0.33 8.58 0.66 13 1 C11.94966272 5.2013491 10.20465976 8.48326975 8.0625 12.1875 C7.52206055 13.14946289 7.52206055 13.14946289 6.97070312 14.13085938 C4.25064767 18.87467617 4.25064767 18.87467617 2 20 C2.875 15.25 2.875 15.25 4 13 C3.34 13 2.68 13 2 13 C2 12.34 2 11.68 2 11 C3.32 11 4.64 11 6 11 C6 10.01 6 9.02 6 8 C6.66 8 7.32 8 8 8 C8 7.34 8 6.68 8 6 C8.66 6 9.32 6 10 6 C10 5.01 10 4.02 10 3 C6.04 3 2.08 3 -2 3 C-1.34 2.01 -0.68 1.02 0 0 Z " fill="#BF9918" transform="translate(549,159)"/>
<path d="M0 0 C1.1446875 0.13728516 1.1446875 0.13728516 2.3125 0.27734375 C5.46346643 0.66983255 8.35530132 1.11843377 11.375 2.125 C13.01853822 2.27723167 14.66505686 2.39839558 16.3125 2.5 C22.53232623 3.00723182 28.37488858 4.46004762 34.375 6.125 C31.32079204 7.06182654 29.03566898 7.13181833 25.88183594 6.68774414 C25.00122498 6.5675441 24.12061401 6.44734406 23.21331787 6.32350159 C22.27151672 6.18709763 21.32971558 6.05069366 20.359375 5.91015625 C19.38840881 5.77556503 18.41744263 5.64097382 17.41705322 5.50230408 C14.31865823 5.07115082 11.22186952 4.62946409 8.125 4.1875 C6.02353477 3.89318484 3.9219732 3.59955672 1.8203125 3.30664062 C-3.32926915 2.58739301 -8.47757202 1.85949345 -13.625 1.125 C-13.625 0.795 -13.625 0.465 -13.625 0.125 C-8.91571367 -1.20710888 -4.76380272 -0.62596043 0 0 Z " fill="#B7911E" transform="translate(469.625,269.875)"/>
<path d="M0 0 C5.07210297 -0.24741966 7.78374381 0.50964109 13 2 C13 7.28 13 12.56 13 18 C10.03 18.33 7.06 18.66 4 19 C4.66 18.01 5.32 17.02 6 16 C7.65 16 9.3 16 11 16 C11 11.71 11 7.42 11 3 C8.69 3 6.38 3 4 3 C3.67 3.66 3.34 4.32 3 5 C2.01 4.67 1.02 4.34 0 4 C0 2.68 0 1.36 0 0 Z " fill="#EABD32" transform="translate(316,208)"/>
<path d="M0 0 C5.94 0.33 11.88 0.66 18 1 C18 2.32 18 3.64 18 5 C11.96496237 6.50875941 6.10261631 5.64186094 0 5 C0 3.35 0 1.7 0 0 Z " fill="#FBC006" transform="translate(444,262)"/>
<path d="M0 0 C1.65 0 3.3 0 5 0 C5.33 0.66 5.66 1.32 6 2 C5.67 2.99 5.34 3.98 5 5 C-1.02596573 6.0712828 -6.88909517 6.09945415 -13 6 C-12 4 -12 4 -8.6875 2.875 C-5 2 -5 2 -1 2 C-0.67 1.34 -0.34 0.68 0 0 Z " fill="#E7B014" transform="translate(75,274)"/>
<path d="M0 0 C7.11507003 -0.23545216 13.58906002 0.63392572 20.5625 2 C21.57119141 2.19078125 22.57988281 2.3815625 23.61914062 2.578125 C26.08091515 3.04481211 28.54101164 3.51888663 31 4 C27.28336556 6.47775629 25.74869778 6.08995778 21.375 5.6875 C19.62316406 5.53861328 19.62316406 5.53861328 17.8359375 5.38671875 C15 5 15 5 14 4 C11.6547231 3.44049636 9.29844204 2.92670421 6.9375 2.4375 C5.00197266 2.03337891 5.00197266 2.03337891 3.02734375 1.62109375 C2.02832031 1.41613281 1.02929688 1.21117187 0 1 C0 0.67 0 0.34 0 0 Z " fill="#BC9419" transform="translate(430,258)"/>
<path d="M0 0 C11.06660956 0.5659908 22.00830029 1.59883036 33 3 C33 3.33 33 3.66 33 4 C8.42045455 4.23863636 8.42045455 4.23863636 0 1 C0 0.67 0 0.34 0 0 Z " fill="#A88119" transform="translate(371,251)"/>
<path d="M0 0 C4.95 0.99 9.9 1.98 15 3 C15 4.32 15 5.64 15 7 C8.125 6.125 8.125 6.125 7 5 C5.31816052 4.76712992 3.6287584 4.58735834 1.9375 4.4375 C1.01839844 4.35371094 0.09929688 4.26992188 -0.84765625 4.18359375 C-1.91306641 4.09271484 -1.91306641 4.09271484 -3 4 C-1.68 3.67 -0.36 3.34 1 3 C0.67 2.01 0.34 1.02 0 0 Z " fill="#7F651E" transform="translate(535,279)"/>
<path d="M0 0 C2.875 -0.1875 2.875 -0.1875 6 0 C8 3 8 3 7.625 5.1875 C7.41875 5.785625 7.2125 6.38375 7 7 C4.69 7 2.38 7 0 7 C0 4.69 0 2.38 0 0 Z " fill="#F6C214" transform="translate(327,188)"/>
<path d="M0 0 C0.33 0 0.66 0 1 0 C1 8.91 1 17.82 1 27 C-2.8726592 27.9681648 -6.03611362 28.07622858 -10 28 C-10 27.34 -10 26.68 -10 26 C-7.03 26 -4.06 26 -1 26 C-0.67 17.42 -0.34 8.84 0 0 Z " fill="#846818" transform="translate(534,206)"/>
<path d="M0 0 C4.7517398 0.43197635 6.92000054 1.32769295 10 5 C5.99799622 6.60080151 2.95443764 5.29279692 -1 4 C-1 5.65 -1 7.3 -1 9 C-1.99 8.67 -2.98 8.34 -4 8 C-3.34 8 -2.68 8 -2 8 C-2 6.35 -2 4.7 -2 3 C-1.34 3 -0.68 3 0 3 C0 2.01 0 1.02 0 0 Z " fill="#FBEA97" transform="translate(316,203)"/>
<path d="M0 0 C0 0.66 0 1.32 0 2 C-2.22850277 2.33774332 -4.45783467 2.6700187 -6.6875 3 C-8.54955078 3.2784375 -8.54955078 3.2784375 -10.44921875 3.5625 C-13.35886371 3.92100411 -16.07700022 4.08942256 -19 4 C-19 3.34 -19 2.68 -19 2 C-16.9620493 1.46481117 -14.91940991 0.94745907 -12.875 0.4375 C-11.73804688 0.14746094 -10.60109375 -0.14257812 -9.4296875 -0.44140625 C-5.93510616 -1.01056927 -3.42796653 -0.78666101 0 0 Z " fill="#88752E" transform="translate(57,281)"/>
<path d="M0 0 C0 0.33 0 0.66 0 1 C-3.87684087 2.19287411 -6.91621923 3 -11 3 C-11 2.34 -11 1.68 -11 1 C-12.258125 1.20625 -13.51625 1.4125 -14.8125 1.625 C-18.4014758 2.21335669 -18.75073878 2.16617415 -22 0 C-14.50824535 -1.0773541 -7.51094816 -0.8388516 0 0 Z " fill="#D7A715" transform="translate(205,254)"/>
<path d="M0 0 C0.66 0.99 1.32 1.98 2 3 C1.67 3.99 1.34 4.98 1 6 C-0.03125 5.835 -1.0625 5.67 -2.125 5.5 C-5.48244326 5.06678152 -8.62336157 4.91764297 -12 5 C-10 2 -10 2 -7.625 1.25 C-5.07496 1.00713905 -3.40864929 1.1971169 -1 2 C-0.67 1.34 -0.34 0.68 0 0 Z " fill="#E3DBB6" transform="translate(339,195)"/>
<path d="M0 0 C7.91216535 1.05412861 15.43109219 2.4371644 23 5 C23 5.33 23 5.66 23 6 C14.64992416 5.70854884 7.69804448 4.25803064 0 1 C0 0.67 0 0.34 0 0 Z " fill="#A47914" transform="translate(481,266)"/>
<path d="M0 0 C2.8712936 0.25568326 5.70565708 0.56806088 8.5625 0.9375 C9.36880859 1.03740234 10.17511719 1.13730469 11.00585938 1.24023438 C13.00452132 1.48858882 15.00234487 1.7436731 17 2 C17 2.33 17 2.66 17 3 C15.37585622 3.19477739 13.75063577 3.38059458 12.125 3.5625 C11.22007812 3.66691406 10.31515625 3.77132813 9.3828125 3.87890625 C7 4 7 4 5 3 C4.67 3.66 4.34 4.32 4 5 C3.01 4.67 2.02 4.34 1 4 C1 3.34 1 2.68 1 2 C0.34 1.67 -0.32 1.34 -1 1 C-0.67 0.67 -0.34 0.34 0 0 Z " fill="#CF9E16" transform="translate(462,263)"/>
<path d="M0 0 C1.65 0 3.3 0 5 0 C4.67 0.99 4.34 1.98 4 3 C4.99 3 5.98 3 7 3 C7 3.66 7 4.32 7 5 C8.65 5 10.3 5 12 5 C11.34 5.66 10.68 6.32 10 7 C5.05057663 6.76051177 1.70000666 6.54583971 -2 3 C-0.35 3 1.3 3 3 3 C3 2.34 3 1.68 3 1 C2.01 0.67 1.02 0.34 0 0 Z " fill="#C59A15" transform="translate(503,272)"/>
<path d="M0 0 C0 0.66 0 1.32 0 2 C-5.10298771 3.10048457 -9.72081849 2.94251169 -14.875 2.5625 C-15.65875 2.51029297 -16.4425 2.45808594 -17.25 2.40429688 C-19.1670912 2.27571149 -21.08361503 2.13871383 -23 2 C-23 1.67 -23 1.34 -23 1 C-7.25512528 -0.14806378 -7.25512528 -0.14806378 0 0 Z " fill="#D1A022" transform="translate(355,257)"/>
<path d="M0 0 C2.8125 0.1875 2.8125 0.1875 6 1 C7.85233285 3.40803271 9 4.92741925 9 8 C7.68 7.34 6.36 6.68 5 6 C5 4.68 5 3.36 5 2 C3.35 1.67 1.7 1.34 0 1 C0 0.67 0 0.34 0 0 Z M1 7 C1.99 7 2.98 7 4 7 C3.67 8.32 3.34 9.64 3 11 C2.01 10.01 1.02 9.02 0 8 C0.33 7.67 0.66 7.34 1 7 Z " fill="#C09211" transform="translate(502,159)"/>
<path d="M0 0 C0.33 0.66 0.66 1.32 1 2 C3.97 2 6.94 2 10 2 C10 2.33 10 2.66 10 3 C3.78675502 3.73030908 -1.84098757 4.23180249 -8 3 C-8 2.34 -8 1.68 -8 1 C-5.36 0.67 -2.72 0.34 0 0 Z " fill="#BC9116" transform="translate(405,261)"/>
<path d="M0 0 C1.59134766 -0.02126953 1.59134766 -0.02126953 3.21484375 -0.04296875 C6.0625 0.1875 6.0625 0.1875 9.0625 2.1875 C9.0625 2.8475 9.0625 3.5075 9.0625 4.1875 C8.4025 4.1875 7.7425 4.1875 7.0625 4.1875 C7.0625 3.5275 7.0625 2.8675 7.0625 2.1875 C2.7725 2.1875 -1.5175 2.1875 -5.9375 2.1875 C-5.9375 2.8475 -5.9375 3.5075 -5.9375 4.1875 C-6.9275 4.1875 -7.9175 4.1875 -8.9375 4.1875 C-8.6075 3.1975 -8.2775 2.2075 -7.9375 1.1875 C-5.2264923 -0.16800385 -3.02410831 0.01832793 0 0 Z " fill="#F0C844" transform="translate(329.9375,198.8125)"/>
<path d="M0 0 C0.33 0 0.66 0 1 0 C1 1.98 1 3.96 1 6 C5.05085679 5.75368443 5.05085679 5.75368443 9 5 C10.5899433 3.07935207 10.5899433 3.07935207 11 1 C12.2077558 4.62326739 11.54311128 5.64146369 10 9 C9.01 8.67 8.02 8.34 7 8 C4.66993089 7.64456573 2.33672984 7.3086247 0 7 C0 4.69 0 2.38 0 0 Z " fill="#C8A951" transform="translate(326,189)"/>
<path d="M0 0 C1.03366148 3.74702285 1.25733598 6.22799206 0 10 C-2.4375 11.125 -2.4375 11.125 -5 12 C-5.99 12.495 -5.99 12.495 -7 13 C-5.35821735 8.22390502 -2.73453298 4.20617096 0 0 Z " fill="#BC9618" transform="translate(541,170)"/>
<path d="M0 0 C0.33 0.99 0.66 1.98 1 3 C3.09719872 4.02281518 3.09719872 4.02281518 5.5625 4.6875 C6.38878906 4.93886719 7.21507812 5.19023437 8.06640625 5.44921875 C9.02353516 5.72185547 9.02353516 5.72185547 10 6 C10 6.33 10 6.66 10 7 C5.07008655 7.28999491 1.90748231 7.19703098 -2 4 C-2 3.01 -2 2.02 -2 1 C-1.34 0.67 -0.68 0.34 0 0 Z " fill="#D8D3B2" transform="translate(314,219)"/>
<path d="M0 0 C4.54805635 -0.17835515 7.8794254 0.00214565 12 2 C11.01 2.66 10.02 3.32 9 4 C9 4.99 9 5.98 9 7 C7.35 6.67 5.7 6.34 4 6 C4.33 4.68 4.66 3.36 5 2 C3.35 1.67 1.7 1.34 0 1 C0 0.67 0 0.34 0 0 Z " fill="#F0BC14" transform="translate(474,266)"/>
<path d="M0 0 C1.18851563 0.00902344 2.37703125 0.01804687 3.6015625 0.02734375 C4.51679688 0.03894531 5.43203125 0.05054688 6.375 0.0625 C6.045 0.7225 5.715 1.3825 5.375 2.0625 C2.9765625 2.546875 2.9765625 2.546875 0 2.8125 C-0.97710937 2.91046875 -1.95421875 3.0084375 -2.9609375 3.109375 C-5.625 3.0625 -5.625 3.0625 -8.625 1.0625 C-5.74084117 -0.37957941 -3.20778472 -0.03144887 0 0 Z " fill="#CEA71E" transform="translate(142.625,266.9375)"/>
<path d="M0 0 C0.33 0.66 0.66 1.32 1 2 C1.598125 2.12375 2.19625 2.2475 2.8125 2.375 C5.70194332 3.20055523 7.01607936 4.80351643 9 7 C8.67 7.66 8.34 8.32 8 9 C6.68 9 5.36 9 4 9 C4 7.68 4 6.36 4 5 C1.525 4.01 1.525 4.01 -1 3 C-0.67 2.01 -0.34 1.02 0 0 Z " fill="#FEF09F" transform="translate(320,201)"/>
<path d="M0 0 C0.33 0 0.66 0 1 0 C1.08121924 1.60332791 1.13929134 3.20784026 1.1875 4.8125 C1.22230469 5.70582031 1.25710938 6.59914062 1.29296875 7.51953125 C0.95081002 10.41647515 0.24606427 11.22555028 -2 13 C-2.99 12.34 -3.98 11.68 -5 11 C-3.35 10.34 -1.7 9.68 0 9 C-0.66 8.34 -1.32 7.68 -2 7 C-1.6730244 4.38419521 -1.17960932 2.35921863 0 0 Z " fill="#B4AE93" transform="translate(324,188)"/>
<path d="M0 0 C1.98 0.495 1.98 0.495 4 1 C3.50168276 4.68754757 2.89932357 6.60490662 0 9 C-1.125 2.25 -1.125 2.25 0 0 Z " fill="#D6A612" transform="translate(546,179)"/>
<path d="M0 0 C0.33 0.99 0.66 1.98 1 3 C3.00016466 4.20882096 3.00016466 4.20882096 5 5 C2 6 2 6 -1 5 C-1.33 5.99 -1.66 6.98 -2 8 C-2.66 8 -3.32 8 -4 8 C-2.87548273 5.0280615 -1.77706209 2.66559313 0 0 Z " fill="#C89C16" transform="translate(546,162)"/>
<path d="M0 0 C0 0.66 0 1.32 0 2 C-2.76452033 3.38226016 -5.0461363 3.09525387 -8.125 3.0625 C-9.22070312 3.05347656 -10.31640625 3.04445313 -11.4453125 3.03515625 C-12.70988281 3.01775391 -12.70988281 3.01775391 -14 3 C-14 2.67 -14 2.34 -14 2 C-9.15758367 0.66416101 -5.06562383 -0.25328119 0 0 Z " fill="#A97815" transform="translate(110,266)"/>
<path d="M0 0 C1.21236328 0.02707031 1.21236328 0.02707031 2.44921875 0.0546875 C3.37154297 0.08949219 3.37154297 0.08949219 4.3125 0.125 C3.3225 0.62 3.3225 0.62 2.3125 1.125 C2.3125 1.785 2.3125 2.445 2.3125 3.125 C-1.50239674 4.59226798 -3.97761622 3.55836419 -7.6875 2.125 C-4.48369983 -0.01086678 -3.66810033 -0.10632175 0 0 Z " fill="#B69214" transform="translate(178.6875,254.875)"/>
<path d="M0 0 C0.66 0.33 1.32 0.66 2 1 C0.25 4.875 0.25 4.875 -2 6 C-4.3329866 6.04022391 -6.66706666 6.04320247 -9 6 C-7 4 -7 4 -3.9375 3 C-0.87849194 2.34247444 -0.87849194 2.34247444 0 0 Z " fill="#CBC7A7" transform="translate(346,220)"/>
<path d="M0 0 C1.98 0 3.96 0 6 0 C4.68 2.64 3.36 5.28 2 8 C1.67 8 1.34 8 1 8 C0.67 5.36 0.34 2.72 0 0 Z " fill="#D2A615" transform="translate(540,188)"/>
<path d="M0 0 C2.64 0 5.28 0 8 0 C7.67 0.99 7.34 1.98 7 3 C4.9375 3.6875 4.9375 3.6875 3 4 C2.01 2.68 1.02 1.36 0 0 Z " fill="#F6C211" transform="translate(329,201)"/>
<path d="M0 0 C3.3 0 6.6 0 10 0 C8.515 1.485 8.515 1.485 7 3 C3.3125 2.6875 3.3125 2.6875 0 2 C0 1.34 0 0.68 0 0 Z " fill="#CEC9A6" transform="translate(325,226)"/>
<path d="M0 0 C1.32 0 2.64 0 4 0 C3.38461538 5.53846154 3.38461538 5.53846154 1.4375 7.875 C0.963125 8.24625 0.48875 8.6175 0 9 C0.875 4.25 0.875 4.25 2 2 C1.34 2 0.68 2 0 2 C0 1.34 0 0.68 0 0 Z " fill="#D6A41B" transform="translate(551,170)"/>
<path d="M0 0 C-0.33 0.66 -0.66 1.32 -1 2 C-4.63 1.67 -8.26 1.34 -12 1 C-12 0.67 -12 0.34 -12 0 C-7.74433453 -1.16063604 -4.3164922 -0.76173392 0 0 Z " fill="#A57D13" transform="translate(468,270)"/>
<path d="M0 0 C3.73487777 0.4979837 5.81237635 0.87491756 9 3 C8.01 3 7.02 3 6 3 C5.67 3.66 5.34 4.32 5 5 C3.35 3.35 1.7 1.7 0 0 Z " fill="#A38117" transform="translate(520,275)"/>
<path d="M0 0 C0.33 0 0.66 0 1 0 C1 1.65 1 3.3 1 5 C1.99 5.33 2.98 5.66 4 6 C4.6875 8.0625 4.6875 8.0625 5 10 C4.34 10 3.68 10 3 10 C1.66666667 8.66666667 0.33333333 7.33333333 -1 6 C-0.625 2.875 -0.625 2.875 0 0 Z " fill="#E6C962" transform="translate(312,212)"/>
<path d="M0 0 C0.99 0.66 1.98 1.32 3 2 C3.1875 4.625 3.1875 4.625 3 7 C1.02 6.01 -0.96 5.02 -3 4 C-2.01 3.67 -1.02 3.34 0 3 C0 2.01 0 1.02 0 0 Z " fill="#90948C" transform="translate(333,182)"/>
<path d="M0 0 C3.375 0.3125 3.375 0.3125 7 1 C7.66 1.99 8.32 2.98 9 4 C6.03 3.01 3.06 2.02 0 1 C0 0.67 0 0.34 0 0 Z " fill="#EBCB56" transform="translate(317,204)"/>
</svg>
