<svg version="1.2" xmlns="http://www.w3.org/2000/svg" viewBox="0 0 842 595" width="842" height="595">
	<style>
		.s0 { fill: #ffc000 } 
		.s1 { fill: #ffffff } 
		.s2 { fill: #ffc000;stroke: #121212;stroke-miterlimit:10;stroke-width: 2 } 
		.s3 { fill: #ffc000;stroke: #121212;stroke-linecap: square;stroke-linejoin: round;stroke-width: 2 } 
		.s4 { fill: #ffc000;stroke: #121212;stroke-linejoin: round } 
		.s5 { fill: #ffc000;stroke: #121212;stroke-linejoin: round;stroke-width: 2 } 
		.s6 { fill: #ffc000;stroke: #121212;stroke-miterlimit:10 } 
	</style>
	<g id="Layer 1">
		<g id="Arc">
			<path id="Arc" fill-rule="evenodd" class="s0" d="m781.03 403c0 0-201.06-39.7-363-38.55l-0.03-11.55c0 0 184.87-4.11 363.03 50.1z"/>
			<path id="Arc1" fill-rule="evenodd" class="s0" d="m55 403c0 0 201.18-39.71 363.12-38.56l-0.09-11.54c0 0-184.86-4.11-363.03 50.1z"/>
		</g>
		<g id="Text">
			<path id="Y
" class="s0" aria-label="Y"  d="m797.2 227.5h-18.6l-30 49.4-29.7-49.4h-20.2l39.9 66v35.5h18.8v-35.8z"/>
			<path id="ESTALT" class="s1" aria-label="ESTALT"  d="m178.5 313.2v-28h49v-15.5h-49v-26.4h55.2v-15.8h-74.1v101.5h76.2v-15.8zm109.6 17.3c27.8 0 41-14 41-30.2 0-37.3-60.2-23.2-60.2-44.8 0-7.7 6.4-13.8 22.1-13.8 8.8 0 18.8 2.6 28 8l5.9-14.7c-8.8-5.8-21.6-9-33.8-9-27.8 0-40.9 14-40.9 30.4 0 37.7 60.3 23.3 60.3 45.2 0 7.5-6.6 13.2-22.4 13.2-12.5 0-25.4-4.7-33.5-11.2l-6.5 14.7c8.4 7.2 24.2 12.2 40 12.2zm79.1-1.5h18.8v-85.6h33.7v-15.9h-86.1v15.9h33.6zm137.4 0h19.7l-45.8-101.5h-18.6l-45.6 101.5h19.4l10-23.4h50.7zm-54.5-38.3l19-44.4 19.2 44.4zm87.5 38.3h71.9v-16h-53.1v-85.5h-18.8zm97.6 0h18.8v-85.6h33.7v-15.9h-86.2v15.9h33.7z"/>
			<path id="G" class="s1" aria-label="G"  d="m125.9 308.7c-6.5 3.8-13.6 5.2-20.8 5.2-21.5 0-36.7-15.1-36.7-35.7 0-21 15.2-35.6 36.8-35.6 10.9 0 20 3.6 28 11.6l11.9-11.6c-9.6-10.9-23.8-16.6-40.8-16.6-31.7 0-54.9 21.9-54.9 52.2 0 30.4 23.2 52.3 54.6 52.3 14.4 0 29.2-4.4 39.8-13v-40.4h-17.9z"/>
		</g>
		<g id="Reading icon copy">
			<path id="Shape 1" fill-rule="evenodd" class="s2" d="m467.95 280.71c-4.51 0-8.16-3.64-8.16-8.16 0-4.51 3.65-8.16 8.16-8.16 4.51 0 8.16 3.65 8.16 8.16 0 4.52-3.65 8.16-8.16 8.16z"/>
			<path id="Shape 2" fill-rule="evenodd" class="s3" d="m444.56 290.74l0.84 24.53 20.27 6.5c0 0 1.88 1.18 3.84 0.09l20.04-5.63 2.08-25.49-23.09 6.26-1.03 22.78-0.48-22.8z"/>
			<path id="Shape 4" fill-rule="evenodd" class="s4" d="m442.08 299.7l-0.08 9.83c0 0 4.8 0.27 5.23-2.81v-3.94c0 0-0.11-3.4-5.15-3.08z"/>
			<path id="Shape 4 copy" fill-rule="evenodd" class="s4" d="m493.92 299.7l0.08 9.83c0 0-4.8 0.27-5.23-2.81v-3.94c0 0 0.11-3.4 5.15-3.08z"/>
			<path id="Shape 5" fill-rule="evenodd" class="s5" d="m452.21 287.87c0 0 1.68-7.55 10.61-7.19 0 0 4.68 4.44 10.32 0.06 0 0 7.6-0.19 11.24 6.96 0 0-11.97 1.57-16.46 8.51 0 0-6.59-7.89-15.71-8.34z"/>
			<path id="Shape 3 copy 2" fill-rule="evenodd" class="s6" d="m447.96 287.2l0.2 3.99c0 0 11.37 2.77 19.26 5.23 0 0-6.01-6.77-19.46-9.22z"/>
			<path id="Shape 3 copy 3" fill-rule="evenodd" class="s6" d="m488.11 286.97l-0.2 3.99c0 0-12.06 3-19.95 5.46 0 0 6.7-7 20.15-9.45z"/>
		</g>
	</g>
</svg>